<?xml version="1.0" encoding="UTF-8"?>
<svg id="Camada_1" xmlns="http://www.w3.org/2000/svg" version="1.1" viewBox="0 0 20 20">
  <!-- Generator: Adobe Illustrator 29.0.1, SVG Export Plug-In . SVG Version: 2.1.0 Build 192)  -->
  <defs>
    <style>
      .st0 {
        fill: #095ea9;
      }

      .st1 {
        fill: #128ce5;
      }

      .st2 {
        fill: #68c9e6;
      }

      .st3 {
        fill: #fcd101;
      }

      .st4 {
        fill: #ccd1d4;
      }

      .st5 {
        fill: #ea8309;
      }
    </style>
  </defs>
  <path class="st3" d="M38.9,13.3c0-3.6,0-7.1,0-10.7,0-1.3.6-1.9,2-1.8,2.7,0,5.5,0,8.2.2-.2,3.5,1.7,5.2,5.6,5.1,0,1.3,0,2.6,0,3.9-1.6.2-3.2.3-4.9.5-.2-.4.2-1.3-.6-1.3-.9,0-.6.7-.7,1.2-.2.7.5,1.6-.6,2-.4-1.2-.2-3.1-1.8-3.2-1.4,0-1.1,1.9-1.8,2.8,0,.1-.1.3-.2.4-1.7.3-3.4.6-5.1,1h0Z"/>
  <path class="st3" d="M49.8,10.4c1.6-.2,3.2-.3,4.9-.5,0,2.5,0,4.9,0,7.4,0,1.2-.5,1.7-1.9,1.7h-12.2c-1.4,0-1.9-.5-1.9-1.7,0-1.3,0-2.7,0-4.1,1.7-.3,3.4-.6,5.1-1,1.3.3,2.6-.6,3.8.3,2.5.6,1.8-1.1,2-2.2Z"/>
  <path class="st5" d="M54.6,6.1c-4,.3-5.9-1.6-5.6-5.1,2.1,1.5,4,3.2,5.6,5.1Z"/>
  <path class="st3" d="M39.2,17.6V6.1h14.1l1.2,8.7-15.3,2.9Z"/>
  <g>
    <path class="st4" d="M26.2,28c-3.8.2-3.5,6.3-.4,6.6h11.6c1.3,0,3.3-.5,3.3-3.7,0-3.5-1.8-4.9-4.3-5-1,0,0-2.2-5.5-2.2-3.5.3-4.7,4.3-4.7,4.3Z"/>
    <g>
      <rect class="st1" x="30.9" y="31.1" width="2.2" height="5.3"/>
      <polygon class="st1" points="32 28.2 29.1 31.7 35 31.7 32 28.2"/>
    </g>
  </g>
  <g>
    <rect class="st2" x="1.5" y="5.5" width="17" height="11.4"/>
    <rect class="st0" x="1.5" y="3.2" width="17" height="2.3"/>
    <rect class="st1" x="3.7" y="8.4" width="1" height="1"/>
    <rect class="st1" x="6.3" y="8.4" width="10.1" height="1"/>
    <rect class="st1" x="3.7" y="10.5" width="1" height="1"/>
    <rect class="st1" x="6.3" y="10.5" width="10.1" height="1"/>
    <rect class="st1" x="3.7" y="12.6" width="1" height="1"/>
    <rect class="st1" x="6.3" y="12.6" width="10.1" height="1"/>
  </g>
</svg>